<svg width="0" height="0" class="hidden">
    <symbol fill="none" xmlns="http://www.w3.org/2000/svg" viewBox="0 0 106 106" id="profile">
        <path d="M31.0667 35.5016C31.0667 23.3805 40.8866 13.5544 53 13.5544C65.1134 13.5544 74.9333 23.3805 74.9333 35.5016C74.9333 47.6227 65.1134 57.4488 53 57.4488C40.8866 57.4488 31.0667 47.6227 31.0667 35.5016ZM53 48.67C60.2681 48.67 66.16 42.7743 66.16 35.5016C66.16 28.229 60.2681 22.3333 53 22.3333C45.7319 22.3333 39.84 28.229 39.84 35.5016C39.84 42.7743 45.7319 48.67 53 48.67Z" fill="#F7F7FC"></path>
        <path d="M28.1853 72.1234C21.604 78.7088 17.9067 87.6406 17.9067 96.9538H26.68C26.68 89.9689 29.453 83.27 34.389 78.331C39.3249 73.3919 46.0195 70.6171 53 70.6171C59.9805 70.6171 66.6751 73.3919 71.6111 78.331C76.547 83.27 79.32 89.9689 79.32 96.9538H88.0933C88.0933 87.6406 84.396 78.7088 77.8147 72.1234C71.2335 65.5379 62.3073 61.8383 53 61.8383C43.6927 61.8383 34.7666 65.5379 28.1853 72.1234Z" fill="#F7F7FC"></path>
    </symbol>
    <symbol fill="none" xmlns="http://www.w3.org/2000/svg" viewBox="0 0 24 24" id="add-chat-icon">
        <path d="M19 10H17V7H14V5H17V2H19V5H22V7H19V10Z" fill="#F7F7FC"></path>
        <path d="M21 12H19V15H8.334C7.90107 14.9988 7.47964 15.1393 7.134 15.4L5 17V5H12V3H5C3.89543 3 3 3.89543 3 5V21L7.8 17.4C8.14582 17.1396 8.56713 16.9992 9 17H19C20.1046 17 21 16.1046 21 15V12Z" fill="#F7F7FC"></path>
    </symbol>
    <symbol fill="none" xmlns="http://www.w3.org/2000/svg" viewBox="0 0 24 24" id="search">
        <path d="M18.677 19.607L12.962 13.891C10.4197 15.6985 6.91644 15.2563 4.90287 12.8739C2.88931 10.4915 3.03716 6.96359 5.243 4.758C7.44826 2.55144 10.9765 2.40295 13.3594 4.41641C15.7423 6.42987 16.1846 9.93344 14.377 12.476L20.092 18.192L18.678 19.606L18.677 19.607ZM9.485 4.99998C7.5887 4.99956 5.95269 6.33067 5.56747 8.18743C5.18226 10.0442 6.15371 11.9163 7.89368 12.6702C9.63364 13.4242 11.6639 12.8528 12.7552 11.302C13.8466 9.75127 13.6991 7.64731 12.402 6.264L13.007 6.864L12.325 6.184L12.313 6.172C11.5648 5.41917 10.5464 4.99712 9.485 4.99998Z" fill="#ADB5BD"></path>
    </symbol>
    <symbol fill="none" xmlns="http://www.w3.org/2000/svg" viewBox="0 0 30 30" id="plane">
        <path d="M25.9781 4.02187C25.8515 3.89594 25.6917 3.80875 25.5173 3.77055C25.3429 3.73236 25.1613 3.74474 24.9937 3.80625L4.36869 11.3062C4.19082 11.3737 4.03768 11.4937 3.92961 11.6503C3.82155 11.8068 3.76367 11.9926 3.76367 12.1828C3.76367 12.373 3.82155 12.5588 3.92961 12.7154C4.03768 12.8719 4.19082 12.9919 4.36869 13.0594L12.4218 16.275L18.3656 10.3125L19.6874 11.6344L13.7156 17.6062L16.9406 25.6594C17.01 25.8338 17.1303 25.9834 17.2857 26.0887C17.4412 26.194 17.6247 26.2502 17.8124 26.25C18.0019 26.2461 18.1857 26.1849 18.3397 26.0744C18.4937 25.964 18.6106 25.8095 18.6749 25.6312L26.1749 5.00625C26.2388 4.84038 26.2542 4.65978 26.2194 4.48549C26.1845 4.3112 26.1008 4.15041 25.9781 4.02187Z" fill="#375FFF"></path>
    </symbol>
</svg>