<svg width="0" height="0" class="hidden">
    <symbol fill="none" xmlns="http://www.w3.org/2000/svg" viewBox="0 0 106 106" id="profile">
        <path d="M31.0667 35.5016C31.0667 23.3805 40.8866 13.5544 53 13.5544C65.1134 13.5544 74.9333 23.3805 74.9333 35.5016C74.9333 47.6227 65.1134 57.4488 53 57.4488C40.8866 57.4488 31.0667 47.6227 31.0667 35.5016ZM53 48.67C60.2681 48.67 66.16 42.7743 66.16 35.5016C66.16 28.229 60.2681 22.3333 53 22.3333C45.7319 22.3333 39.84 28.229 39.84 35.5016C39.84 42.7743 45.7319 48.67 53 48.67Z" fill="#F7F7FC"></path>
        <path d="M28.1853 72.1234C21.604 78.7088 17.9067 87.6406 17.9067 96.9538H26.68C26.68 89.9689 29.453 83.27 34.389 78.331C39.3249 73.3919 46.0195 70.6171 53 70.6171C59.9805 70.6171 66.6751 73.3919 71.6111 78.331C76.547 83.27 79.32 89.9689 79.32 96.9538H88.0933C88.0933 87.6406 84.396 78.7088 77.8147 72.1234C71.2335 65.5379 62.3073 61.8383 53 61.8383C43.6927 61.8383 34.7666 65.5379 28.1853 72.1234Z" fill="#F7F7FC"></path>
    </symbol>
</svg>